<svg width="273" height="283" viewBox="0 0 273 283" fill="none" xmlns="http://www.w3.org/2000/svg">
<path d="M111.858 11.7225C124.973 -3.03213 148.027 -3.03213 161.142 11.7225V11.7225C169.068 20.639 181.192 24.5785 192.845 22.0235V22.0235C212.128 17.7957 230.779 31.3464 232.717 50.9921V50.9921C233.888 62.8644 241.382 73.1779 252.311 77.9604V77.9604C270.396 85.8743 277.52 107.8 267.541 124.833V124.833C261.51 135.126 261.51 147.874 267.541 158.167V158.167C277.52 175.2 270.396 197.126 252.311 205.04V205.04C241.382 209.822 233.888 220.136 232.717 232.008V232.008C230.779 251.654 212.128 265.204 192.845 260.977V260.977C181.192 258.422 169.068 262.361 161.142 271.278V271.278C148.027 286.032 124.973 286.032 111.858 271.278V271.278C103.932 262.361 91.8077 258.422 80.1546 260.977V260.977C60.8717 265.204 42.2206 251.654 40.2828 232.008V232.008C39.1117 220.136 31.6184 209.822 20.6891 205.04V205.04C2.60381 197.126 -4.52025 175.2 5.45941 158.167V158.167C11.4903 147.874 11.4903 135.126 5.45941 124.833V124.833C-4.52025 107.8 2.6038 85.8743 20.6891 77.9604V77.9604C31.6184 73.1779 39.1117 62.8644 40.2828 50.9921V50.9921C42.2206 31.3464 60.8717 17.7957 80.1546 22.0235V22.0235C91.8077 24.5785 103.932 20.639 111.858 11.7225V11.7225Z" fill="#5FBEBB"/>
</svg>
