<svg width="219" height="229" viewBox="0 0 219 229" fill="none" xmlns="http://www.w3.org/2000/svg">
<path d="M99.6786 8.26701C101.752 -2.55763 117.248 -2.55766 119.321 8.26698L125.065 38.2494C126.548 45.987 135.979 49.0515 141.726 43.663L163.996 22.7828C172.037 15.2444 184.573 24.3523 179.888 34.3286L166.911 61.961C163.563 69.0921 169.392 77.1151 177.209 76.1339L207.499 72.3315C218.434 70.9587 223.223 85.6957 213.569 91.0129L186.829 105.741C179.928 109.542 179.928 119.458 186.829 123.259L213.569 137.987C223.223 143.304 218.434 158.041 207.499 156.669L177.209 152.866C169.392 151.885 163.563 159.908 166.911 167.039L179.888 194.671C184.573 204.648 172.037 213.756 163.997 206.217L141.726 185.337C135.979 179.948 126.548 183.013 125.065 190.751L119.321 220.733C117.248 231.558 101.752 231.558 99.6786 220.733L93.9348 190.751C92.4524 183.013 83.0208 179.948 77.2736 185.337L55.0035 206.217C46.9633 213.756 34.4272 204.648 39.1121 194.671L52.0885 167.039C55.4373 159.908 49.6083 151.885 41.7914 152.866L11.5014 156.669C0.565749 158.041 -4.22261 143.304 5.43142 137.987L32.1715 123.259C39.0723 119.458 39.0723 109.542 32.1715 105.741L5.43144 91.0129C-4.22259 85.6957 0.565722 70.9587 11.5014 72.3315L41.7913 76.1339C49.6082 77.1151 55.4373 69.0921 52.0885 61.961L39.1121 34.3286C34.4272 24.3524 46.9632 15.2444 55.0035 22.7828L77.2736 43.663C83.0208 49.0515 92.4524 45.987 93.9348 38.2495L99.6786 8.26701Z" fill="#F3FFA9"/>
</svg>
