<svg width="301" height="315" viewBox="0 0 301 315" fill="none" xmlns="http://www.w3.org/2000/svg">
<path d="M150.5 0L153.186 88.3158C153.756 107.069 177.508 114.786 188.992 99.9499L243.076 30.0798L193.339 103.108C182.777 118.615 197.457 138.819 215.468 133.566L300.291 108.83L217.128 138.676C199.469 145.013 199.469 169.987 217.128 176.324L300.291 206.17L215.468 181.434C197.457 176.181 182.777 196.386 193.339 211.892L243.076 284.92L188.992 215.05C177.508 200.214 153.756 207.931 153.186 226.684L150.5 315L147.814 226.684C147.244 207.931 123.492 200.214 112.008 215.05L57.9238 284.92L107.661 211.892C118.223 196.385 103.543 176.181 85.5319 181.434L0.708603 206.17L83.8719 176.324C101.531 169.987 101.531 145.013 83.8718 138.676L0.708603 108.83L85.532 133.566C103.543 138.819 118.223 118.614 107.661 103.108L57.9238 30.0798L112.008 99.95C123.492 114.786 147.244 107.069 147.814 88.3158L150.5 0Z" fill="#FF61E6"/>
</svg>
